<?xml version="1.0" encoding="utf-8"?>
<!-- Generator: Adobe Illustrator 21.1.0, SVG Export Plug-In . SVG Version: 6.00 Build 0)  -->
<svg version="1.1" id="Layer_15" xmlns="http://www.w3.org/2000/svg" xmlns:xlink="http://www.w3.org/1999/xlink" x="0px" y="0px"
	 viewBox="0 0 72.5 60" style="enable-background:new 0 0 72.5 60;" xml:space="preserve">
<style type="text/css">
	.st0{fill:#25385D;}
	.st1{fill:#D1D9EE;}
	.st2{fill:#28AAE7;}
</style>
<title>bbb</title>
<g>
	<path class="st0" d="M62.6,26.3c-0.5-3.7-1.9-7.3-4-10.4c1-1.9,0.7-4.2-0.9-5.8C52.4,4.9,45.4,2,38,2h-3.5
		c-7.7,0-14.9,3.1-20.2,8.7c-0.9,1-1.4,2.2-1.4,3.5c0,0.8,0.2,1.6,0.6,2.3c-1.9,3-3.2,6.3-3.7,9.9C4.3,27.2,0,32,0,37.7v3.6
		c0,6.2,5,11.3,11.1,11.5c0.9,0.8,2.1,1.3,3.4,1.3c2.7,0,5-2.2,5-5V29.9c0-2.7-2.2-5-5-5c-0.1,0-0.3,0-0.4,0
		c0.5-2.2,1.4-4.2,2.5-6.1c1.7,0.4,3.6-0.1,4.8-1.4c3.4-3.6,8.1-5.6,13-5.6H38c4.8,0,9.3,1.9,12.7,5.3c1.3,1.3,3.2,1.7,4.9,1.3
		c1.3,2,2.3,4.2,2.8,6.5c-0.1,0-0.3,0-0.4,0c-2.7,0-5,2.2-5,5v19.4c0,2.7,2.2,5,5,5c1.2,0,2.4-0.5,3.4-1.3
		c6.2-0.2,11.1-5.3,11.1-11.5v-3.6C72.4,32,68.2,27.2,62.6,26.3z M9.6,30.5v18c-3.2-0.9-5.5-3.8-5.5-7.2v-3.6
		C4.1,34.3,6.4,31.4,9.6,30.5z M13.6,49.2V29.9c0-0.5,0.4-0.9,0.9-0.9c0.5,0,0.9,0.4,0.9,0.9v19.4c0,0.5-0.4,0.9-0.9,0.9
		S13.6,49.7,13.6,49.2z M54.8,14.3c-0.4,0.4-0.9,0.4-1.3,0c-4.2-4.2-9.7-6.4-15.6-6.4h-3.5c-6.1,0-11.8,2.4-16,6.8
		c-0.2,0.2-0.4,0.3-0.6,0.3c-0.3,0-0.5-0.1-0.6-0.2c-0.2-0.2-0.3-0.4-0.3-0.6c0-0.2,0.1-0.5,0.2-0.6C21.8,8.6,27.9,6,34.5,6l1,0H38
		c6.4,0,12.4,2.5,16.9,7C55.2,13.3,55.2,13.9,54.8,14.3z M58.9,29.9v19.4c0,0.5-0.4,0.9-0.9,0.9c-0.5,0-0.9-0.4-0.9-0.9V29.9
		c0-0.5,0.4-0.9,0.9-0.9C58.5,28.9,58.9,29.4,58.9,29.9z M68.4,37.7v3.6c0,3.4-2.3,6.3-5.5,7.2v-18C66.1,31.4,68.4,34.4,68.4,37.7z"
		/>
	<g>
		<path class="st0" d="M49,37.9h-8.3c-0.5,0-0.9,0.3-1,0.8l-0.6,3.2l-0.8-7.6c-0.1-0.5-0.5-0.9-1-0.9c0,0,0,0,0,0
			c-0.5,0-0.9,0.4-1,0.8l-1.8,13.6l-1.7-18.5c0-0.5-0.4-0.8-0.9-0.9c-0.5,0-0.9,0.3-1,0.7L27.8,41h-3.6c-0.5,0-1,0.4-1,1
			c0,0.5,0.4,1,1,1h4.4c0.4,0,0.8-0.3,0.9-0.7l2-7.4l2,21.8c0.1,0.5,0.5,0.9,1,0.9c0,0,0,0,0,0c0.5,0,0.9-0.4,1-0.8l1.9-14.2
			l0.7,6.1c0.1,0.5,0.5,0.8,0.9,0.9c0.5,0,0.9-0.3,1-0.8l1.7-8.8H49c0.5,0,1-0.4,1-1C50,38.3,49.6,37.9,49,37.9z"/>
	</g>
	<g>
		<path class="st1" d="M47.4,8.8c-3.7-1.7-7-2.2-9.3-2.3c-1.3,0-2.6,0-3.9,0c-2.7,0.1-6.7,0.6-10.6,3.1c-3,1.9-5.5,4.5-7.1,5.7
			c0,0,0,0.1,0.1,0.1c0.7,0.7,2,0.7,2.7-0.1c4-4.2,9.4-6.5,15.2-6.5H38c5.6,0,10.9,2.2,14.9,6.2c0.7,0.7,1.9,0.7,2.7,0
			c0,0,0.1-0.1,0.1-0.1C54.3,13.4,51.6,10.8,47.4,8.8z"/>
	</g>
	<g>
		<path class="st1" d="M58,28c-0.1,0-0.2,0-0.3,0c-0.1,0.2-0.2,0.5-0.2,0.8v21.5c0,0.3,0.1,0.6,0.2,0.8c0.1,0,0.2,0,0.3,0
			c1,0,1.9-0.8,1.9-1.9V29.9C59.8,28.8,59,28,58,28z"/>
	</g>
	<g>
		<path class="st1" d="M12.6,49.2c0,1,0.8,1.9,1.9,1.9c0.1,0,0.2,0,0.4,0c0.1-0.2,0.2-0.5,0.2-0.8V28.8c0-0.3-0.1-0.6-0.2-0.8
			c-0.1,0-0.2,0-0.4,0c-1,0-1.9,0.8-1.9,1.9V49.2z"/>
	</g>
	<g>
		<path class="st1" d="M61.9,29.3v0.5v19.4v0.5c4.2-0.5,7.4-4.1,7.4-8.4v-3.6C69.4,33.4,66.1,29.9,61.9,29.3z"/>
	</g>
	<g>
		<path class="st1" d="M3.1,37.7v3.6c0,4.3,3.2,7.9,7.4,8.4v-0.5V29.9v-0.5C6.4,29.9,3.1,33.4,3.1,37.7z"/>
	</g>
	<g>
		<path class="st2" d="M57.5,28.8c0-0.3,0.1-0.6,0.2-0.8c-0.9,0.1-1.6,0.9-1.6,1.8v19.4c0,0.9,0.7,1.7,1.6,1.8
			c-0.1-0.2-0.2-0.5-0.2-0.8V28.8z"/>
	</g>
	<g>
		<path class="st2" d="M15.1,50.3c0,0.3-0.1,0.6-0.2,0.8c0.9-0.2,1.5-0.9,1.5-1.8V29.9c0-0.9-0.6-1.7-1.5-1.8
			c0.1,0.2,0.2,0.5,0.2,0.8V50.3z"/>
	</g>
	<g>
		<path class="st2" d="M55.5,12.3C50.8,7.6,44.6,5,38,5h-3.5v0c-6.9,0-13.2,2.7-18,7.7c-0.3,0.4-0.5,0.8-0.5,1.3
			c0,0.5,0.2,0.9,0.5,1.2c1.6-1.3,4.1-3.8,7.1-5.7c3.9-2.5,7.9-3,10.6-3.1c1.3,0,2.6,0,3.9,0c2.3,0.1,5.6,0.7,9.3,2.3
			c4.2,1.9,6.9,4.6,8.2,6C56.2,14.1,56.2,13,55.5,12.3z"/>
	</g>
</g>
</svg>
