<?xml version="1.0" encoding="utf-8"?>
<!-- Generator: Adobe Illustrator 21.1.0, SVG Export Plug-In . SVG Version: 6.00 Build 0)  -->
<svg version="1.1" id="Layer_15" xmlns="http://www.w3.org/2000/svg" xmlns:xlink="http://www.w3.org/1999/xlink" x="0px" y="0px"
	 viewBox="0 0 50.7 70" style="enable-background:new 0 0 50.7 70;" xml:space="preserve">
<style type="text/css">
	.st0{fill:#D1D9EE;}
	.st1{fill:#28AAE7;}
	.st2{fill:#25385D;}
</style>
<title>bbb</title>
<path class="st0" d="M25.4,3c-3.5,0-6.9,1.4-9.4,3.9c-2.5,2.5-4,5.9-3.9,9.4v21.3C12,41.1,13.4,44.5,16,47c2.5,2.5,5.9,4,9.4,3.9
	c3.5,0.1,6.9-1.4,9.4-3.9c2.5-2.5,4-5.9,3.9-9.4V16.3c0-3.5-1.4-6.9-3.9-9.4C32.3,4.4,28.9,3,25.4,3L25.4,3z"/>
<g>
	<g>
		<path class="st1" d="M25.6,45.9c-6.6,0.1-12.4-5-12.9-11.8c-1.4,9.7,6,17.3,12.9,17.3c6.8-0.1,13.9-7.7,12.6-17.3
			C37.5,40.7,32,45.8,25.6,45.9z"/>
	</g>
	<g>
		<path class="st2" d="M23.5,59.3v2.4H10.2c-1,0-1.8,0.8-1.8,1.8c0,1,0.8,1.8,1.8,1.8h30.4c1,0,1.8-0.8,1.8-1.8c0-1-0.8-1.8-1.8-1.8
			H27.2v-2.4c10.2-0.6,18.4-9.2,18.4-19.5c0-1-0.8-1.8-1.8-1.8c-1,0-1.8,0.8-1.8,1.8c0,8.3-6.6,15.3-14.8,15.9v-1.3
			c8.1-0.9,14.4-7.8,14.4-16.1v-22C41.6,7.3,34.3,0,25.3,0C16.4,0,9.1,7.3,9.1,16.2v22c0,8.3,6.3,15.2,14.4,16.1v1.3
			C15.3,55,8.7,48.1,8.7,39.7c0-1-0.8-1.8-1.8-1.8s-1.8,0.8-1.8,1.8C5.1,50.1,13.3,58.7,23.5,59.3z M17,32.6h-4.1v-3.4H17
			c0.5,0,0.9-0.2,1.3-0.5c0.3-0.3,0.5-0.8,0.5-1.3c0-1-0.8-1.8-1.8-1.8h-4.1v-3.7H17c0.5,0,0.9-0.2,1.3-0.5c0.3-0.3,0.5-0.8,0.5-1.3
			c0-1-0.8-1.8-1.8-1.8h-4.1v-2c0-6.9,5.6-12.4,12.4-12.4c6.9,0,12.4,5.6,12.4,12.4v2h-4.1c-1,0-1.8,0.8-1.8,1.8
			c0,1,0.8,1.8,1.8,1.8h4.1v3.7h-4.1c-1,0-1.8,0.8-1.8,1.8c0,1,0.8,1.8,1.8,1.8h4.1v3.4h-4.1c-1,0-1.8,0.8-1.8,1.8
			c0,1,0.8,1.8,1.8,1.8h4.1v2c0,6.9-5.6,12.4-12.4,12.4c-6.9,0-12.4-5.6-12.4-12.4v-2H17c0.5,0,0.9-0.2,1.3-0.5
			c0.3-0.3,0.5-0.8,0.5-1.3C18.8,33.4,18,32.6,17,32.6z"/>
		<path class="st2" d="M47.8,66.4H2.9c-1,0-1.8,0.8-1.8,1.8c0,1,0.8,1.8,1.8,1.8h44.8c1,0,1.8-0.8,1.8-1.8
			C49.6,67.2,48.8,66.4,47.8,66.4z"/>
	</g>
</g>
</svg>
